<?xml version="1.0" standalone="no"?>
<!DOCTYPE svg PUBLIC "-//W3C//DTD SVG 20010904//EN"
 "http://www.w3.org/TR/2001/REC-SVG-20010904/DTD/svg10.dtd">
<svg version="1.0" xmlns="http://www.w3.org/2000/svg"
 width="519.000000pt" height="519.000000pt" viewBox="0 0 519.000000 519.000000"
 preserveAspectRatio="xMidYMid meet">
<metadata>
Created by potrace 1.14, written by Peter Selinger 2001-2017
</metadata>
<g transform="translate(0.000000,519.000000) scale(0.100000,-0.100000)"
fill="#000000" stroke="none">
<path d="M3349 4973 c-13 -16 -12 -17 4 -4 16 13 21 21 13 21 -2 0 -10 -8 -17
-17z"/>
<path d="M3336 4935 c5 -11 2 -13 -10 -9 -11 4 -16 1 -16 -11 0 -10 -5 -13
-12 -9 -7 4 -8 3 -4 -4 4 -7 4 -18 -1 -24 -10 -17 -10 -39 -1 -60 6 -12 3 -15
-11 -11 -23 6 -39 -16 -20 -28 11 -7 10 -9 -4 -9 -10 0 -15 -5 -12 -10 4 -6
10 -8 14 -6 4 3 13 0 21 -6 13 -8 12 -9 -1 -5 -9 3 -22 0 -29 -6 -10 -9 -11
-9 -5 2 6 10 4 12 -4 7 -9 -6 -9 -11 0 -22 9 -11 8 -15 -5 -20 -9 -3 -13 -10
-10 -16 3 -5 18 1 32 14 21 18 23 19 12 3 -19 -26 -32 -35 -42 -29 -4 3 -8 0
-8 -6 0 -6 8 -10 18 -9 38 3 43 0 32 -23 -11 -22 -10 -22 4 -4 11 13 12 23 6
31 -7 8 -5 12 5 12 8 0 12 -4 9 -8 -2 -4 0 -10 5 -13 5 -3 16 9 24 26 15 30
14 34 -1 53 -15 17 -15 18 -1 7 15 -11 18 -8 28 18 5 17 7 29 3 26 -4 -3 -8 5
-9 17 0 12 1 16 4 10 3 -7 9 -13 14 -13 6 0 8 4 5 9 -4 5 -1 11 6 13 11 4 17
21 21 63 1 11 9 23 17 27 12 5 12 7 -2 7 -10 1 -18 6 -18 12 0 6 -6 9 -12 6
-7 -2 -21 0 -30 5 -14 6 -16 5 -12 -7z m50 -30 c2 -12 -1 -14 -8 -7 -6 6 -17
8 -24 5 -8 -3 -14 -1 -14 4 0 27 42 26 46 -2z m-70 -26 c-9 -19 -15 -29 -16
-22 0 15 22 64 27 60 2 -2 -3 -19 -11 -38z m21 -21 c-3 -7 -5 -2 -5 12 0 14 2
19 5 13 2 -7 2 -19 0 -25z m42 23 c7 -5 9 -11 5 -14 -5 -3 -15 1 -22 9 -14 16
-5 18 17 5z m-9 -36 c11 -13 10 -14 -4 -9 -9 3 -16 10 -16 15 0 13 6 11 20 -6z
m-39 -18 c-6 -8 -7 -18 -3 -22 4 -5 1 -5 -6 -1 -10 6 -10 11 -1 22 6 8 14 14
16 14 3 0 0 -6 -6 -13z"/>
<path d="M3060 4863 c0 -7 -7 -10 -17 -6 -15 5 -15 3 2 -11 19 -17 19 -17 -10
-11 -29 6 -29 6 -10 -9 11 -9 14 -15 6 -14 -7 2 -15 -5 -16 -14 -2 -10 1 -18
6 -18 5 0 9 -5 9 -11 0 -5 -6 -7 -12 -3 -9 5 -9 2 1 -9 7 -10 9 -17 3 -17 -6
0 -8 -13 -5 -31 3 -19 1 -29 -5 -25 -6 3 -8 -2 -5 -14 3 -11 10 -17 17 -13 6
4 4 -2 -4 -12 -9 -11 -10 -16 -2 -11 15 9 15 1 1 -26 -8 -15 -8 -19 0 -14 6 4
11 2 11 -3 0 -6 7 -11 16 -11 8 0 12 -4 9 -10 -3 -5 -4 -10 -1 -10 3 0 13 12
21 28 9 15 14 19 11 10 -3 -10 -1 -20 4 -23 9 -5 15 15 11 37 0 4 7 4 17 1 9
-3 14 -3 10 2 -4 4 -3 16 3 26 8 15 6 21 -6 26 -13 5 -14 7 -3 14 9 6 10 9 1
9 -7 0 -10 6 -7 13 3 8 0 25 -5 40 -7 18 -7 27 2 31 7 2 4 5 -5 5 -10 1 -18 6
-18 12 0 5 6 7 13 3 6 -4 9 -4 5 1 -4 4 -3 14 3 21 7 8 6 14 -2 20 -8 4 -9 3
-5 -4 4 -7 3 -12 -1 -12 -5 0 -16 12 -25 28 -10 15 -18 22 -18 15z m20 -57
c-7 -7 -14 -6 -22 2 -9 9 -9 12 1 12 8 0 11 7 7 18 -5 14 -3 14 9 -2 10 -13
12 -23 5 -30z m-30 -18 c0 -6 -6 -5 -15 2 -8 7 -15 14 -15 16 0 2 7 1 15 -2 8
-4 15 -11 15 -16z m40 -28 c6 -11 9 -20 8 -20 -2 0 -11 9 -21 20 -9 11 -13 20
-7 20 5 0 14 -9 20 -20z m-40 -160 c0 -5 -2 -10 -4 -10 -3 0 -8 5 -11 10 -3 6
-1 10 4 10 6 0 11 -4 11 -10z"/>
<path d="M1850 4799 c-19 -4 -38 -5 -42 -3 -5 3 -8 2 -8 -3 0 -4 -12 -8 -27
-9 -61 -2 -118 -9 -123 -16 -3 -4 -21 -9 -40 -11 -19 -2 -42 -7 -50 -10 -8 -3
-33 -11 -55 -18 -52 -16 -184 -85 -213 -113 -13 -11 -24 -19 -25 -17 -3 6 -98
-52 -119 -71 -10 -10 -20 -17 -22 -15 -4 2 -75 -55 -122 -98 -64 -58 -85 -75
-94 -75 -5 0 -10 -6 -10 -13 0 -8 -11 -20 -25 -27 -14 -7 -23 -15 -21 -17 2
-2 -17 -26 -43 -52 -85 -88 -145 -156 -144 -161 1 -3 -15 -23 -36 -45 -38 -41
-56 -72 -52 -90 2 -5 0 -7 -4 -3 -8 8 -45 -22 -45 -37 0 -17 -57 -75 -66 -67
-4 4 -4 -1 -1 -11 5 -13 0 -20 -16 -27 -12 -5 -18 -9 -14 -9 5 -1 2 -7 -5 -15
-7 -8 -22 -26 -33 -42 -11 -15 -26 -33 -33 -40 -6 -7 -12 -17 -12 -23 0 -5
-12 -23 -26 -40 -14 -17 -23 -31 -19 -31 4 0 1 -8 -6 -17 -12 -15 -12 -16 1
-8 12 7 13 6 3 -6 -16 -20 -10 -52 11 -55 17 -2 17 -1 -1 18 -10 12 -12 18 -6
14 27 -15 58 -15 77 2 11 9 16 11 12 5 -4 -8 -2 -13 6 -14 7 0 25 -2 41 -5 81
-12 82 -13 154 -45 24 -10 50 -19 58 -19 8 0 15 -5 15 -11 0 -5 4 -8 9 -4 5 3
16 -2 24 -10 9 -8 21 -15 27 -15 7 0 26 -10 43 -22 18 -13 28 -16 23 -7 -4 7
-1 6 7 -4 9 -11 21 -15 32 -10 13 4 16 3 11 -5 -5 -8 1 -12 18 -12 14 0 26 -5
26 -11 0 -5 4 -8 9 -5 5 3 12 -1 15 -10 4 -9 13 -14 21 -10 8 3 15 1 15 -5 0
-6 5 -7 10 -4 6 3 10 3 10 -2 0 -4 15 -15 33 -22 50 -23 126 -84 124 -101 -1
-8 -12 -16 -25 -18 -12 -2 -22 -8 -22 -13 0 -6 -4 -7 -10 -4 -5 3 -20 0 -32
-7 -13 -7 -29 -11 -37 -9 -7 1 -10 -2 -6 -8 4 -7 -3 -11 -17 -11 -13 0 -35 -8
-48 -17 -14 -10 -31 -18 -39 -20 -8 -1 -17 -7 -21 -14 -4 -6 -13 -8 -19 -5 -6
4 -11 3 -11 -2 0 -5 -11 -15 -25 -22 -13 -7 -22 -17 -19 -22 3 -4 -1 -8 -9 -8
-7 0 -20 -12 -27 -26 -16 -28 -58 -54 -78 -47 -6 3 -9 10 -5 16 17 27 11 35
-17 27 -21 -6 -31 -4 -43 11 -10 12 -23 16 -34 12 -19 -7 -18 -5 11 17 18 13
19 13 11 0 -4 -8 -4 -12 0 -7 5 4 15 -3 22 -15 7 -13 12 -17 13 -10 0 7 5 10
12 6 7 -5 8 -3 4 5 -5 7 -10 10 -13 7 -3 -3 -13 5 -23 17 -13 15 -22 19 -32
12 -8 -6 -5 -1 7 9 15 14 16 18 4 13 -25 -9 -61 21 -54 44 4 11 2 19 -5 19 -6
0 -8 -6 -4 -12 5 -10 4 -10 -6 -1 -7 6 -18 10 -24 9 -6 -2 -8 -1 -3 2 4 2 12
13 18 25 9 18 9 20 -2 10 -7 -7 -18 -13 -24 -13 -6 0 -5 4 2 8 17 11 23 79 7
79 -9 0 -10 -5 -3 -19 7 -14 6 -20 -6 -24 -8 -3 -12 -11 -8 -17 4 -6 1 -7 -7
-2 -10 6 -10 10 3 20 15 11 15 14 0 35 -9 13 -11 20 -5 16 6 -3 13 -2 17 3 3
6 13 8 23 5 14 -5 15 -4 2 5 -8 6 -24 8 -35 5 l-20 -5 20 12 c27 17 48 39 38
39 -5 0 -15 -6 -22 -12 -11 -11 -13 -10 -7 5 3 10 6 21 6 23 0 3 4 3 9 -1 6
-3 8 3 6 15 -2 11 1 23 7 26 6 4 8 2 4 -4 -3 -6 -1 -14 5 -18 7 -4 9 -3 6 3
-4 6 0 16 8 23 8 7 15 18 15 24 0 6 -4 5 -9 -3 -5 -8 -11 -9 -15 -3 -3 6 -2
13 4 17 14 9 12 27 -2 23 -7 -3 -13 -14 -13 -25 0 -27 -10 -37 -26 -28 -8 6
-7 10 5 17 14 8 15 13 5 24 -16 19 -39 18 -55 -3 -12 -16 -13 -16 -9 6 2 13 1
21 -2 17 -10 -10 -14 -46 -5 -46 5 0 9 -7 9 -16 0 -14 -2 -14 -14 2 -7 10 -13
22 -13 27 0 4 -6 2 -13 -5 -15 -16 -20 -61 -6 -52 6 3 8 12 5 20 -3 7 -2 15 2
18 4 3 8 -4 9 -14 1 -11 -2 -22 -7 -25 -5 -3 -6 -13 -3 -23 4 -13 2 -13 -11 3
-16 20 -16 20 -13 -5 1 -14 7 -32 12 -40 7 -12 6 -13 -7 -3 -8 7 -19 9 -23 5
-5 -4 -5 -1 -1 6 4 6 3 12 -3 12 -5 0 -9 -9 -8 -20 1 -12 7 -18 14 -16 7 3 13
1 13 -4 0 -6 -9 -10 -19 -10 -11 0 -23 -4 -26 -10 -3 -5 0 -7 8 -4 8 3 14 -2
14 -11 0 -8 -3 -15 -7 -15 -4 0 -7 -7 -7 -14 0 -8 3 -14 6 -13 3 1 6 -2 6 -8
0 -5 -4 -9 -10 -7 -5 1 -2 -4 8 -12 10 -8 19 -20 21 -28 1 -7 5 -19 9 -25 5
-8 4 -13 -2 -13 -6 0 -11 -5 -11 -11 0 -8 4 -9 13 0 8 6 18 7 23 3 4 -4 2 1
-5 11 -7 9 -11 17 -7 17 4 0 -1 11 -10 25 -8 13 -13 29 -10 34 4 5 2 12 -4 16
-14 9 -6 48 11 53 12 3 12 2 0 -6 -11 -8 -11 -10 0 -15 10 -4 10 -6 2 -6 -7
-1 -13 -6 -13 -12 0 -5 4 -8 9 -4 5 3 12 1 15 -4 4 -5 2 -12 -4 -16 -14 -9
-12 -25 3 -23 7 2 12 -8 12 -27 1 -21 5 -29 15 -27 8 1 4 -7 -10 -19 l-25 -22
25 8 c23 7 24 7 10 -10 -12 -14 -12 -19 -2 -22 6 -3 10 -9 7 -14 -4 -5 1 -6
10 -2 13 4 14 8 4 14 -8 4 -10 11 -6 16 14 14 26 -19 16 -45 -5 -14 -7 -27 -4
-30 3 -3 5 1 5 8 0 11 3 11 13 2 6 -7 13 -17 13 -22 1 -6 2 -16 3 -22 1 -9 4
-9 11 2 6 9 5 20 -3 29 -9 11 -9 13 0 8 6 -4 13 -4 16 0 2 5 3 3 1 -3 -1 -6 3
-17 9 -24 9 -10 9 -11 -2 -5 -10 5 -12 4 -7 -4 4 -6 12 -9 17 -6 5 4 9 -1 9
-10 0 -12 7 -16 27 -13 19 2 28 -2 28 -12 1 -8 6 -14 13 -12 7 1 12 -2 12 -8
0 -15 -16 -12 -30 5 -14 17 -30 20 -30 4 0 -5 3 -8 8 -6 10 7 32 -19 24 -29
-4 -4 -2 -4 5 -1 14 9 43 -2 43 -15 0 -5 -4 -6 -10 -3 -5 3 -10 0 -10 -8 0 -8
-7 -17 -15 -21 -8 -3 -15 -15 -15 -26 0 -11 -7 -20 -16 -20 -8 0 -12 -4 -9
-10 3 -5 1 -10 -5 -10 -6 0 -8 -4 -5 -10 3 -5 2 -10 -3 -10 -9 0 -25 -37 -23
-52 1 -5 -3 -8 -9 -8 -5 0 -10 -9 -10 -20 0 -11 -4 -20 -8 -20 -4 0 -9 -9 -10
-20 -1 -11 -3 -29 -4 -40 -1 -11 -7 -20 -13 -20 -6 0 -11 -8 -12 -17 -1 -18
-7 -52 -18 -108 -7 -33 -9 -251 -3 -275 2 -8 6 -19 9 -25 4 -5 6 -22 5 -37 -1
-16 1 -28 5 -28 7 0 24 -68 21 -82 -1 -5 2 -8 8 -8 5 0 10 -7 10 -16 0 -8 5
-25 12 -37 7 -12 13 -28 14 -36 2 -8 9 -18 16 -22 7 -5 9 -9 3 -9 -5 0 -2 -5
8 -11 9 -6 15 -14 12 -20 -4 -5 -1 -9 4 -9 6 0 11 -6 11 -13 0 -22 31 -78 46
-84 8 -3 11 -9 8 -14 -3 -5 2 -16 10 -25 9 -8 16 -22 16 -30 0 -8 5 -14 10
-14 6 0 10 -9 10 -20 0 -11 5 -20 10 -20 6 0 10 -7 10 -15 0 -8 4 -15 9 -15 5
0 14 -13 21 -30 7 -16 16 -30 21 -30 5 0 9 -7 9 -15 0 -18 48 -88 88 -130 6
-8 12 -16 12 -19 0 -3 9 -16 20 -28 10 -13 21 -27 22 -33 4 -14 59 -65 70 -65
5 0 7 -4 4 -8 -3 -5 14 -27 39 -50 24 -22 42 -42 40 -44 -2 -2 37 -43 86 -91
49 -48 89 -84 89 -81 0 4 13 -7 28 -24 16 -18 34 -32 40 -32 6 0 14 -5 18 -12
5 -7 3 -8 -7 -3 -12 8 -12 6 0 -8 7 -9 19 -17 26 -17 17 0 47 -35 38 -45 -5
-4 -3 -5 3 -2 7 4 32 -14 57 -39 26 -25 51 -43 57 -39 5 3 10 -1 10 -10 0 -9
9 -19 20 -22 11 -3 17 -9 14 -14 -3 -5 4 -9 16 -9 12 0 18 -5 15 -10 -3 -6 -1
-10 5 -10 6 0 9 -4 6 -9 -6 -9 22 -26 36 -23 4 1 5 -4 2 -12 -3 -8 0 -17 7
-22 7 -4 10 -3 5 4 -3 6 -1 14 5 18 7 4 9 3 6 -3 -4 -6 2 -22 14 -34 11 -13
18 -17 14 -9 -4 8 1 6 10 -5 47 -59 61 -74 68 -75 4 0 18 -11 30 -24 12 -13
32 -26 45 -30 12 -4 22 -11 22 -16 0 -4 12 -11 26 -14 15 -4 33 -14 41 -22 9
-8 22 -13 29 -10 8 3 14 1 14 -5 0 -6 6 -9 14 -6 8 3 16 2 18 -4 3 -10 45 -21
88 -23 14 0 31 -7 38 -14 8 -7 17 -10 22 -7 5 3 20 1 34 -5 17 -6 26 -6 26 1
0 6 6 6 18 0 24 -12 104 -12 119 1 9 7 13 7 13 0 0 -6 10 -8 23 -5 12 3 34 6
50 7 15 0 27 5 27 9 0 5 5 5 10 2 6 -3 13 0 16 8 3 8 13 14 22 12 9 -1 23 2
30 8 6 5 12 6 12 1 0 -5 4 -3 9 4 4 7 18 14 29 15 12 1 22 5 22 10 0 4 5 5 10
2 6 -3 13 1 16 9 3 9 10 14 14 11 5 -3 11 -1 15 5 4 6 10 8 15 5 4 -3 10 2 14
10 3 8 11 15 19 15 7 0 24 11 37 25 13 14 27 25 32 25 5 0 36 20 70 45 34 25
67 45 73 45 15 1 50 32 58 53 4 10 11 16 16 13 4 -3 19 8 31 24 12 16 25 28
29 26 3 -2 15 2 26 10 10 8 13 14 6 14 -9 0 -8 4 3 15 8 8 19 15 24 15 6 0 13
7 16 16 3 8 10 12 16 9 5 -3 10 -1 10 4 0 6 7 11 17 11 9 0 14 3 10 6 -3 4 17
30 46 58 29 28 58 63 66 79 8 15 18 27 23 27 11 0 38 26 38 36 0 4 14 20 32
36 17 15 29 28 26 28 -3 0 13 20 36 43 105 112 136 148 136 162 0 9 4 14 8 11
4 -2 8 3 9 12 5 60 23 123 34 116 5 -3 9 0 9 5 0 6 -6 11 -12 11 -10 0 -9 3 1
9 9 6 10 10 2 16 -8 4 -9 11 -2 19 5 6 8 44 7 84 -1 39 1 72 6 72 4 0 8 -4 8
-9 0 -5 7 -12 16 -15 8 -3 12 -2 9 4 -3 6 -3 11 2 11 37 6 53 5 53 -5 0 -7 15
-11 40 -9 27 1 38 -2 34 -9 -4 -7 -2 -8 5 -4 8 6 9 12 2 20 -8 9 -6 12 9 11
11 -1 23 -5 27 -10 5 -4 3 -5 -3 -2 -6 3 -11 0 -11 -7 0 -12 16 -14 37 -6 3 1
9 2 13 1 5 -1 6 2 3 7 -3 5 10 7 29 5 23 -2 35 1 36 9 0 7 7 0 15 -17 l15 -30
-6 30 c-3 17 -2 26 2 20 10 -12 57 -20 50 -8 -3 5 5 9 18 9 20 0 22 -3 14 -25
-9 -25 -8 -25 6 -7 9 12 15 14 15 7 0 -7 6 -11 13 -8 6 2 19 1 28 -4 10 -5 23
-3 35 7 18 15 18 15 -2 5 -11 -5 -26 -6 -34 -1 -8 5 -17 7 -21 4 -4 -2 -9 2
-12 9 -3 7 3 13 13 13 10 0 17 -3 14 -7 -6 -11 22 -18 36 -9 20 12 43 1 30
-15 -8 -9 -8 -15 0 -20 6 -4 9 -1 8 6 -3 15 28 18 54 7 13 -6 16 -5 12 6 -4 9
-15 13 -32 10 -15 -3 -23 -2 -19 2 4 4 17 8 29 8 13 1 30 6 38 10 8 5 12 6 8
1 -4 -4 -1 -14 7 -21 16 -16 29 -19 20 -4 -3 6 1 10 10 10 9 0 14 -4 11 -9 -7
-11 13 -9 33 3 8 5 17 3 23 -5 6 -10 7 -6 3 11 -5 19 -4 21 4 10 9 -13 14 -13
40 3 22 13 32 14 37 6 5 -8 3 -9 -6 -4 -8 5 -11 4 -6 -3 4 -6 14 -8 23 -5 10
4 14 2 10 -4 -3 -5 0 -10 8 -10 11 0 12 3 3 14 -9 11 -6 13 15 9 16 -3 33 1
41 10 16 16 30 19 21 5 -3 -5 -1 -13 5 -16 6 -4 9 -3 8 2 -2 4 1 9 6 10 5 1
13 7 17 15 7 11 11 10 19 -2 7 -11 10 -11 10 -2 0 8 5 10 13 6 8 -5 8 -2 -2 9
-15 19 -26 23 -15 5 4 -7 3 -8 -5 -4 -9 6 -9 11 0 22 13 15 23 19 15 5 -3 -5
3 -11 15 -14 15 -4 18 -2 10 7 -7 8 -4 12 10 12 10 0 19 -7 20 -16 0 -10 3 -9
8 5 5 12 4 26 -3 34 -9 12 -7 12 14 1 24 -12 24 -12 8 6 -12 14 -14 23 -7 34
9 13 10 13 6 -1 -3 -9 3 -23 14 -32 10 -9 19 -12 19 -7 0 6 10 10 23 11 12 0
16 3 10 6 -7 2 -13 9 -13 14 0 6 8 5 20 -1 18 -10 24 -7 21 13 0 4 4 7 9 7 6
0 10 -5 10 -12 0 -6 3 -8 6 -5 4 4 1 13 -6 22 -11 14 -14 13 -25 -1 -10 -14
-13 -15 -20 -3 -5 8 -5 11 0 7 4 -4 16 3 27 15 11 12 16 16 12 8 -4 -9 -2 -12
7 -9 8 3 21 1 31 -3 13 -7 15 -5 11 10 -3 12 -11 17 -19 14 -8 -3 -14 0 -14 7
0 6 4 9 9 6 5 -4 19 6 30 21 17 24 22 26 31 13 7 -11 10 -11 10 -2 0 7 4 11 8
8 5 -3 9 1 9 9 0 18 -14 20 -19 3 -3 -7 -7 -2 -11 11 -4 17 -2 21 8 17 9 -3
12 0 9 8 -3 8 -15 12 -27 10 -21 -4 -21 -4 -2 4 11 5 25 7 32 5 7 -3 10 3 9
14 -2 10 2 25 8 33 9 13 9 13 -5 2 -14 -10 -18 -10 -23 3 -3 8 0 15 7 15 7 1
-3 7 -20 15 -18 8 -33 17 -33 20 0 3 5 3 11 -1 6 -3 16 0 21 7 7 10 8 9 3 -6
-5 -15 -3 -17 6 -8 16 16 4 31 -26 28 -14 -2 -25 1 -25 7 0 6 6 8 14 5 8 -3
20 2 28 11 12 15 11 16 -4 3 -11 -8 -18 -9 -18 -3 0 6 -8 9 -17 6 -15 -5 -15
-4 -3 4 8 6 17 9 21 6 4 -2 10 -1 13 4 8 13 -37 12 -53 -1 -12 -10 -13 -9 -2
11 7 13 17 20 24 16 9 -5 9 -3 0 6 -12 13 -30 20 -60 22 -7 1 -10 5 -8 9 3 3
-2 12 -10 19 -10 8 -12 17 -5 29 6 13 5 18 -5 18 -8 0 -17 -7 -19 -14 -3 -8
-1 -11 4 -8 6 4 7 -1 3 -11 -5 -15 -7 -14 -17 3 -6 11 -19 19 -28 18 -19 -3
-24 10 -8 20 6 3 10 0 10 -7 0 -9 3 -9 10 2 8 12 10 12 10 1 0 -8 3 -12 6 -8
3 3 -1 15 -9 27 -12 17 -15 18 -20 5 -4 -8 -11 -15 -16 -15 -6 0 -8 7 -4 15 4
13 0 15 -22 11 -20 -4 -25 -2 -21 10 8 20 -1 17 -13 -5 -9 -16 -7 -18 19 -16
22 2 27 -1 22 -13 -4 -11 -7 -12 -10 -3 -3 8 -8 7 -18 -6 -10 -12 -12 -13 -9
-3 4 11 -2 16 -22 18 -25 1 -26 0 -10 -12 9 -7 17 -17 17 -21 0 -4 -8 -1 -17
6 -15 12 -16 12 -10 -3 4 -11 2 -17 -5 -15 -6 1 -11 -7 -13 -19 -1 -16 4 -20
22 -18 20 2 22 -1 19 -23 -4 -19 -2 -22 8 -14 9 7 19 6 35 -5 20 -15 23 -15
35 1 12 16 13 16 10 -6 -1 -13 -3 -26 -3 -28 -1 -2 -12 4 -26 13 -14 9 -25 12
-25 7 0 -5 10 -13 21 -16 17 -6 19 -9 8 -17 -10 -7 -9 -8 6 -3 41 14 62 15 62
2 0 -7 -8 -13 -18 -13 -10 0 -15 5 -12 10 3 5 1 6 -5 2 -14 -8 6 -46 23 -46 6
0 11 -10 12 -21 1 -12 6 -26 12 -32 11 -11 10 11 -1 28 -4 6 3 12 15 12 15 2
18 0 8 -6 -11 -7 -11 -9 0 -14 11 -4 11 -6 1 -6 -7 -1 -11 -5 -7 -10 3 -5 -2
-17 -11 -25 -8 -9 -11 -16 -5 -16 6 0 11 -7 11 -16 0 -14 -3 -14 -15 -4 -9 7
-18 10 -22 6 -3 -3 -2 -6 4 -6 14 0 25 -28 13 -35 -5 -3 -12 0 -16 6 -5 8 -3
9 6 4 9 -5 11 -4 6 4 -9 14 -36 -3 -36 -23 0 -7 4 -6 9 2 7 11 9 10 14 -3 4
-10 3 -14 -4 -9 -8 4 -9 -1 -5 -17 5 -16 1 -13 -12 10 -15 27 -20 30 -25 17
-4 -9 -3 -15 1 -12 5 3 9 -1 9 -8 0 -8 -8 -11 -19 -8 -10 2 -15 8 -12 13 8 14
-6 10 -22 -5 -9 -9 -10 -17 -4 -21 5 -3 10 -1 10 5 0 6 5 8 11 4 18 -10 -8
-22 -38 -16 l-25 5 17 -34 18 -34 -25 25 c-13 14 -22 29 -20 34 3 5 0 6 -7 2
-7 -5 -10 -14 -7 -22 3 -8 -3 -23 -14 -34 -11 -11 -20 -23 -21 -27 0 -5 -2
-10 -4 -11 -2 -2 -2 4 -1 13 1 9 9 20 16 25 8 5 11 12 7 16 -3 4 -14 1 -24 -7
-15 -12 -16 -12 -10 4 4 11 3 16 -3 12 -6 -3 -10 -16 -11 -28 0 -12 -3 -16 -6
-9 -2 6 -9 12 -14 12 -5 0 -4 -10 2 -22 11 -21 11 -22 -6 -8 -15 13 -19 12
-36 -9 -11 -13 -19 -19 -19 -14 0 5 4 13 10 19 6 6 2 14 -13 23 -20 13 -21 13
-9 -2 9 -10 10 -17 2 -22 -5 -3 -10 -2 -10 3 0 5 -7 9 -15 9 -12 0 -12 -3 -3
-15 15 -17 20 -44 7 -36 -5 3 -7 9 -4 14 3 5 -4 14 -16 20 -12 7 -19 8 -16 3
3 -5 1 -15 -4 -23 -9 -13 -10 -13 -8 0 3 26 -1 40 -10 40 -5 0 -6 -10 -3 -22
5 -21 4 -22 -11 -7 -9 9 -28 15 -44 13 -15 -1 -34 3 -42 9 -12 9 -13 9 -7 0 6
-12 -5 -18 -26 -14 -7 1 -11 -13 -10 -29 0 -3 -8 -6 -18 -6 -10 0 -16 6 -13
13 7 17 -5 16 -23 -2 -9 -8 -21 -15 -27 -15 -7 0 -4 5 6 11 21 12 22 26 2 26
-8 0 -12 -4 -9 -9 3 -4 -2 -8 -11 -8 -9 0 -14 -4 -11 -8 3 -5 -1 -9 -9 -9 -8
0 -13 3 -11 6 2 3 -3 13 -12 21 -14 13 -15 12 -9 -3 3 -9 1 -19 -5 -23 -6 -4
-8 -3 -4 4 4 7 -4 10 -21 10 -46 -1 -55 1 -47 14 4 7 3 8 -4 4 -7 -4 -12 -1
-12 6 0 9 -3 10 -8 2 -4 -6 -16 -10 -26 -8 -11 1 -28 -2 -38 -7 -16 -9 -17
-13 -6 -26 12 -15 11 -15 -10 -2 -12 8 -18 15 -12 17 5 2 10 10 10 19 0 12 -2
12 -16 -1 -22 -22 -34 -20 -29 6 3 20 0 18 -25 -12 -30 -35 -39 -35 -20 1 6
10 7 19 2 19 -5 0 -14 -12 -21 -26 -10 -22 -14 -24 -27 -13 -8 7 -12 19 -9 28
3 8 3 12 -1 8 -4 -4 -13 -2 -20 4 -8 7 -14 7 -19 -1 -3 -5 -11 -10 -16 -10 -6
0 -7 5 -3 12 5 7 3 8 -5 4 -7 -5 -10 -15 -7 -23 3 -8 2 -12 -3 -8 -5 3 -12 -1
-15 -7 -3 -7 -4 -2 -3 11 1 13 -4 26 -12 29 -10 3 -11 -2 -6 -19 4 -15 3 -19
-3 -11 -5 7 -17 10 -28 6 -11 -3 -15 -2 -9 3 14 11 18 36 5 28 -5 -3 -10 -5
-10 -3 -3 32 -55 149 -78 173 -16 19 -28 35 -26 38 2 2 -5 12 -16 22 -11 10
-20 24 -20 31 0 7 -20 37 -45 67 -24 30 -42 57 -40 59 3 3 -6 15 -20 28 -14
13 -25 28 -25 34 0 6 -11 24 -25 40 -14 16 -25 34 -26 40 0 6 -2 18 -4 27 -3
17 18 20 32 4 4 -4 3 -5 -4 -1 -6 3 -14 2 -17 -3 -4 -5 0 -8 6 -7 26 4 35 16
30 42 -3 16 -1 25 5 21 5 -3 10 -1 11 6 0 7 3 21 6 32 2 11 5 28 5 38 1 10 5
16 10 12 6 -3 10 3 10 12 1 40 5 53 14 53 5 0 4 7 -3 15 -7 9 -8 15 -2 15 5 0
13 7 16 16 4 10 2 13 -7 8 -8 -6 -8 -3 1 9 8 9 11 20 8 25 -3 5 6 7 19 4 15
-2 25 0 25 7 0 6 11 11 25 11 14 0 25 3 25 8 0 4 9 13 21 20 14 9 19 10 14 2
-10 -16 27 4 50 26 9 10 30 17 46 18 16 1 29 4 29 9 0 10 89 97 101 97 5 0 8
3 8 8 -3 19 2 33 11 27 6 -3 10 1 10 9 0 9 5 16 10 16 6 0 10 12 10 26 0 17
-4 23 -12 18 -8 -4 -10 -3 -5 2 5 5 14 9 20 9 7 0 12 14 12 30 0 17 5 33 10
38 6 4 5 10 -4 16 -11 7 -11 9 0 13 10 3 14 26 14 86 0 45 -2 82 -5 82 -3 0
-6 12 -7 26 0 15 -5 29 -10 33 -12 9 -15 34 -3 26 5 -3 10 -2 10 4 0 5 -4 12
-10 16 -5 3 -7 12 -3 20 3 8 0 15 -6 15 -6 0 -8 6 -5 14 3 8 0 17 -6 21 -8 5
-8 10 0 20 8 9 8 15 0 20 -5 3 -10 11 -10 16 0 12 32 8 41 -5 4 -5 13 -5 20 0
23 14 51 15 67 2 9 -7 13 -8 10 -3 -4 6 2 17 14 24 11 7 17 8 13 2 -3 -6 -1
-11 4 -11 6 0 11 5 11 10 0 6 6 10 13 9 35 -4 58 2 51 14 -6 9 -3 8 8 -1 14
-12 19 -9 33 15 9 15 13 19 10 8 -6 -18 -4 -18 18 3 13 12 27 19 30 15 4 -3 7
-1 7 5 0 7 5 12 11 12 5 0 7 -6 3 -12 -5 -10 -3 -10 7 0 12 11 12 14 -1 22 -8
5 -12 10 -7 11 4 1 10 2 15 3 4 1 16 7 27 15 15 10 16 11 2 7 -16 -5 -16 -4
-1 19 9 14 21 22 28 18 6 -4 4 2 -4 12 -9 11 -10 16 -2 11 8 -5 12 -1 12 11 0
15 2 16 11 3 9 -12 10 -11 6 8 -4 15 0 22 10 22 8 0 13 6 10 13 -2 6 3 18 12
25 13 11 13 12 1 6 -8 -4 3 9 24 28 30 26 36 37 26 43 -9 6 -11 4 -5 -6 5 -8
4 -11 0 -6 -5 4 -9 16 -10 27 -1 15 2 17 11 9 8 -7 14 -6 20 2 4 8 3 9 -4 5
-7 -4 -12 -1 -12 9 0 10 5 13 13 9 6 -4 9 -4 5 0 -3 4 -3 20 2 36 6 20 4 35
-8 51 -8 12 -10 19 -4 15 7 -4 12 -2 12 3 0 6 -4 11 -8 11 -5 0 -9 7 -9 15 0
12 3 12 15 2 13 -10 14 -9 4 9 -6 12 -8 25 -4 30 4 5 -4 0 -17 -11 l-25 -20
17 24 c12 18 14 29 6 44 -8 13 -8 17 -1 13 6 -3 13 -2 17 4 3 5 -1 10 -10 10
-9 0 -13 5 -10 10 3 6 1 10 -4 10 -6 0 -11 5 -11 11 0 5 5 7 12 3 7 -4 8 -3 4
5 -4 6 -11 9 -14 7 -4 -2 -7 13 -6 34 0 22 -3 37 -8 34 -4 -3 -6 -9 -4 -13 3
-4 -2 -8 -10 -8 -10 0 -11 4 -4 11 13 13 13 39 0 31 -5 -3 -10 2 -10 12 0 10
-8 27 -17 38 l-16 20 7 -20 c6 -19 6 -19 -9 -1 -8 10 -13 22 -10 25 2 4 -10
13 -26 20 -26 11 -28 15 -17 29 11 15 10 15 -14 -1 -19 -12 -29 -14 -34 -5 -5
7 -3 8 6 3 8 -5 11 -3 8 6 -3 8 -13 16 -23 17 -12 3 -15 0 -10 -10 4 -7 -7 2
-25 20 -20 21 -29 40 -26 50 5 14 4 14 -8 -1 -12 -16 -14 -16 -20 -2 -3 9 -10
13 -16 10 -5 -3 -10 -2 -10 4 0 6 -7 8 -15 5 -11 -5 -14 -1 -9 12 4 14 0 13
-16 -6 -21 -24 -21 -24 -15 -2 4 13 2 22 -4 22 -6 0 -11 -8 -11 -17 0 -15 -2
-16 -9 -3 -6 8 -7 18 -4 23 3 5 0 7 -8 5 -8 -3 -19 2 -26 11 -10 15 -12 14
-18 -1 -6 -15 -10 -13 -32 13 -27 31 -46 33 -22 2 12 -16 12 -17 -2 -6 -9 7
-19 10 -22 6 -4 -3 -7 1 -7 10 0 10 -5 17 -11 17 -5 0 -8 -4 -4 -9 3 -5 0 -13
-6 -17 -8 -5 -9 -3 -4 6 6 10 3 12 -13 8 -12 -4 -22 -2 -22 3 0 14 -37 5 -58
-14 -14 -13 -21 -14 -30 -5 -16 16 -15 -4 1 -22 10 -12 9 -12 -5 -2 -14 11
-19 9 -32 -10 -9 -12 -16 -18 -16 -12 0 9 -39 12 -47 4 -2 -1 -7 -3 -12 -4 -5
0 -13 -5 -18 -10 -5 -5 -2 -6 7 -2 8 4 6 0 -5 -9 -11 -9 -19 -20 -18 -25 2 -5
-7 -7 -18 -5 -16 3 -19 0 -15 -12 6 -14 4 -14 -11 -2 -14 12 -16 12 -11 -1 3
-8 -1 -21 -9 -29 -13 -12 -14 -11 -8 8 l7 22 -26 -22 c-22 -19 -27 -39 -10
-39 3 0 3 4 -1 9 -3 5 -1 12 4 15 5 4 8 -2 7 -11 -2 -10 -8 -19 -14 -19 -7 -1
-17 -2 -23 -3 -5 0 -7 -6 -4 -11 4 -6 11 -7 17 -4 7 4 8 2 4 -4 -4 -6 -14 -8
-23 -5 -10 4 -14 2 -10 -4 4 -6 0 -14 -9 -17 -9 -4 -14 -13 -10 -21 3 -8 1
-15 -4 -15 -6 0 -9 -3 -9 -7 3 -21 -2 -34 -11 -28 -6 4 -13 -7 -16 -24 -4 -17
-10 -31 -14 -31 -4 0 -7 -11 -7 -25 0 -15 4 -22 11 -19 6 3 2 -2 -8 -10 -18
-14 -15 -21 7 -17 12 2 8 -6 -10 -20 -9 -8 -14 -9 -10 -3 6 11 -32 34 -58 34
-7 0 -15 5 -17 11 -2 6 -19 11 -38 12 -19 1 -41 8 -49 15 -7 7 -20 11 -28 8
-8 -3 -11 -1 -8 4 6 9 -38 15 -73 11 -7 -1 -19 5 -27 13 -16 16 -20 30 -6 22
5 -3 11 1 14 9 4 8 1 13 -6 11 -7 -1 -9 -1 -4 1 4 3 4 9 1 15 -4 5 4 4 17 -3
23 -12 23 -11 9 6 -14 17 -13 18 4 12 17 -7 17 -6 5 9 -12 15 -11 16 11 9 l25
-8 -20 19 c-12 11 -16 16 -9 11 7 -4 14 -1 18 8 3 9 2 13 -3 10 -5 -3 -13 0
-17 6 -4 7 -3 10 2 6 5 -3 9 23 8 60 0 43 -5 67 -14 73 -11 7 -11 11 -1 23 9
12 9 17 0 23 -8 5 -9 3 -4 -6 5 -9 4 -11 -4 -6 -6 4 -9 12 -5 17 3 5 0 17 -8
26 -9 12 -9 15 0 9 7 -4 12 -1 12 8 0 9 -4 16 -10 16 -5 0 -9 6 -7 13 1 6 -4
11 -12 9 -12 -3 -12 -1 0 14 9 12 9 15 2 10 -8 -4 -13 -2 -13 4 0 6 -5 8 -12
4 -7 -5 -9 -2 -6 8 4 8 -2 20 -13 27 -11 6 -17 16 -14 20 3 5 -1 12 -7 14 -10
4 -10 7 0 15 11 7 11 10 -2 15 -8 3 -18 1 -22 -5 -5 -7 -2 -8 6 -3 9 5 11 4 6
-4 -4 -6 -12 -9 -17 -5 -5 3 -7 10 -4 15 4 5 0 9 -8 9 -8 0 -21 8 -28 18 -13
15 -12 16 4 3 10 -8 17 -9 17 -3 0 13 -36 26 -49 17 -5 -3 -13 0 -16 6 -4 5
-14 8 -22 5 -8 -3 -12 -2 -8 3 8 14 -23 41 -40 35 -8 -4 -12 -11 -8 -18 8 -12
-28 13 -39 29 -5 6 -8 4 -8 -5 0 -12 -2 -12 -9 -1 -6 9 -11 10 -15 2 -4 -6
-12 -11 -18 -11 -6 0 -3 10 8 22 10 13 12 18 4 12 -8 -6 -44 -11 -79 -12 -35
-1 -70 -7 -77 -13 -9 -7 -15 -6 -22 6 -12 23 -19 23 -37 0 -12 -16 -14 -17 -9
-2 5 13 2 16 -10 11 -9 -3 -13 -11 -9 -17 4 -6 1 -7 -7 -2 -10 6 -12 4 -6 -10
6 -15 4 -16 -10 -5 -13 12 -17 11 -25 -1 -6 -10 -9 -10 -9 -1 0 6 -4 12 -10
12 -5 0 -7 -8 -3 -17 5 -15 3 -15 -11 2 -17 20 -17 20 -13 -3 3 -12 1 -19 -4
-16 -15 9 -50 -6 -43 -18 5 -7 0 -9 -14 -6 -13 4 -20 1 -19 -5 1 -6 -3 -11
-10 -12 -21 0 -26 -14 -12 -32 13 -16 12 -17 -2 -5 -14 11 -16 9 -16 -13 0
-15 4 -22 11 -18 6 3 7 2 3 -3 -5 -5 -13 -10 -18 -10 -5 -1 -14 -2 -20 -3 -5
0 -7 -5 -4 -11 6 -9 -8 -14 -27 -11 -5 0 -8 -3 -8 -8 0 -5 3 -11 8 -14 8 -4
-9 0 -35 9 -11 3 -14 2 -8 -3 10 -7 12 -25 5 -38 -1 -3 -3 -8 -4 -12 -1 -5 -5
-13 -9 -20 -5 -7 -1 -9 13 -6 17 5 18 8 8 22 -12 14 -11 15 5 2 18 -15 18 -15
0 -28 -36 -25 -42 -33 -37 -55 14 -63 14 -68 2 -69 -7 -1 -16 -1 -20 0 -5 0
-8 -4 -8 -10 0 -5 -3 -8 -7 -6 -5 3 -8 28 -8 56 0 39 -4 51 -15 51 -9 0 -11 3
-5 8 16 11 19 46 3 36 -10 -6 -11 -5 -1 7 14 17 14 21 3 59 -5 18 -5 32 1 36
6 3 6 11 1 17 -4 7 -7 21 -6 32 6 53 17 101 25 110 23 24 8 61 -23 56 -5 0 -8
3 -8 8 0 5 -11 8 -24 7 -15 -2 -23 1 -20 9 6 13 -7 14 -56 4z m225 -309 c-3
-5 -12 -10 -18 -10 -7 0 -6 4 3 10 19 12 23 12 15 0z m1605 -46 c0 -8 -19 -13
-24 -6 -3 5 1 9 9 9 8 0 15 -2 15 -3z m-1639 -47 c-7 -7 -7 -15 2 -26 10 -14
10 -14 -5 -3 -13 11 -16 23 -9 50 1 2 6 0 12 -4 8 -4 8 -9 0 -17z m1919 -47
c8 -5 11 -10 5 -10 -5 0 -17 5 -25 10 -8 5 -10 10 -5 10 6 0 17 -5 25 -10z
m-1935 -48 c-16 -11 -19 -46 -3 -36 10 6 10 5 2 -7 -11 -14 -11 -20 1 -69 12
-47 13 -67 3 -81 -8 -11 -9 -10 -4 3 3 10 1 20 -4 23 -4 3 -7 13 -6 23 2 9 -2
20 -8 24 -7 5 -7 8 2 8 11 0 9 9 -6 34 -15 25 -17 37 -9 45 8 8 7 11 -3 11
-11 1 -10 5 4 15 11 8 25 15 30 15 7 0 8 -3 1 -8z m2185 -137 c-5 -7 -9 -14
-7 -16 1 -2 0 -3 -2 -1 -11 7 -7 29 5 29 9 0 11 -4 4 -12z m-2164 -82 c-2 -10
2 -21 8 -25 8 -6 8 -8 -1 -8 -16 0 -26 18 -19 35 8 21 15 19 12 -2z m2214 11
c0 -8 -19 -13 -24 -6 -3 5 1 9 9 9 8 0 15 -2 15 -3z m-2194 -69 c-3 -8 1 -18
8 -22 7 -5 23 -22 36 -40 13 -18 27 -30 31 -27 17 10 21 -20 4 -33 -11 -7 -15
-13 -9 -13 5 0 2 -4 -6 -9 -18 -12 -30 -5 -30 18 0 10 -7 24 -15 31 -13 10
-13 15 -3 21 7 5 16 3 21 -4 6 -8 7 -8 4 3 -2 8 -12 14 -22 12 -9 -2 -14 1
-11 6 3 5 -1 17 -8 28 -12 16 -12 44 1 44 3 0 3 -7 -1 -15z m2178 -1 c3 -8 2
-12 -4 -9 -6 3 -10 10 -10 16 0 14 7 11 14 -7z m36 -308 c0 -2 -8 -10 -17 -17
-16 -13 -17 -12 -4 4 13 16 21 21 21 13z m-3780 -321 c0 -1 -9 -5 -19 -8 -13
-3 -18 -1 -14 9 4 10 33 10 33 -1z m-6 -70 c-4 -8 -11 -15 -16 -15 -6 0 -5 6
2 15 7 8 14 15 16 15 2 0 1 -7 -2 -15z m1960 -11 c3 -8 2 -12 -4 -9 -6 3 -10
10 -10 16 0 14 7 11 14 -7z m-1976 -39 c-3 -3 -9 2 -12 12 -6 14 -5 15 5 6 7
-7 10 -15 7 -18z m48 -198 c1 -9 -2 -15 -7 -11 -5 3 -7 9 -4 14 3 4 0 11 -5
13 -6 3 -5 4 1 3 7 -1 13 -10 15 -19z m39 -35 c-3 -3 -11 0 -18 7 -9 10 -8 11
6 5 10 -3 15 -9 12 -12z m-83 -56 c7 4 8 2 4 -5 -9 -13 -26 -5 -25 12 0 9 2 8
6 -1 2 -6 10 -9 15 -6z m195 -22 c-3 -3 -12 -4 -19 -1 -8 3 -5 6 6 6 11 1 17
-2 13 -5z m-137 -14 c0 -5 -2 -10 -4 -10 -3 0 -8 5 -11 10 -3 6 -1 10 4 10 6
0 11 -4 11 -10z m125 -20 c3 -5 1 -10 -4 -10 -6 0 -11 5 -11 10 0 6 2 10 4 10
3 0 8 -4 11 -10z m-98 -6 c-3 -3 -12 -4 -19 -1 -8 3 -5 6 6 6 11 1 17 -2 13
-5z m1092 -169 c-1 -17 -2 -18 -6 -2 -5 18 -5 18 -18 0 -7 -10 -17 -18 -22
-18 -5 0 -21 -11 -35 -25 -14 -14 -34 -32 -44 -41 -11 -9 -27 -26 -37 -38 -10
-12 -23 -19 -29 -15 -7 4 -8 3 -4 -4 4 -7 2 -12 -4 -12 -6 0 -8 -4 -5 -10 3
-5 1 -10 -5 -10 -6 0 -9 -4 -5 -9 3 -6 -3 -15 -13 -20 -11 -6 -22 -24 -25 -41
-4 -18 -13 -30 -22 -30 -8 0 -15 -8 -15 -17 -1 -12 -5 -8 -13 10 -13 30 -19
32 -52 15 -15 -8 -17 -8 -9 1 18 20 53 21 63 3 9 -15 10 -14 8 5 -1 15 -7 20
-20 17 -14 -2 -17 1 -12 13 5 15 4 15 -12 1 -12 -9 -27 -13 -43 -8 -25 6 -25
6 -3 12 12 3 24 2 27 -3 2 -5 3 -4 2 3 -2 8 -14 12 -29 10 -34 -4 -35 14 -3
49 13 14 28 35 35 47 6 12 15 21 19 20 12 -4 52 26 52 39 0 7 6 13 14 13 8 0
17 7 20 16 3 8 10 12 16 9 6 -3 13 1 16 10 4 9 13 14 21 11 7 -3 22 3 33 14
11 11 20 15 20 8 0 -9 3 -9 11 -1 6 6 17 9 24 7 7 -3 16 -1 19 4 3 6 21 5 46
-1 31 -9 40 -16 39 -32z m286 -231 c29 -19 39 -41 16 -39 -9 0 -22 4 -29 9 -7
4 -12 2 -12 -5 0 -8 -3 -9 -13 0 -8 6 -17 8 -20 4 -4 -3 -7 0 -7 8 0 16 19 39
32 39 5 0 19 -7 33 -16z m-738 -61 c1 -20 -1 -23 -9 -12 -7 10 -9 11 -6 1 2
-8 7 -13 12 -12 5 1 13 -4 18 -12 8 -10 9 -9 5 4 -6 17 16 19 30 3 4 -4 2 -5
-4 -1 -7 4 -13 2 -13 -3 0 -6 7 -11 16 -11 8 0 12 -4 9 -10 -3 -5 1 -10 10
-10 12 0 14 4 5 19 -7 15 -7 19 5 17 8 -1 18 -6 22 -11 4 -4 3 -5 -4 -1 -19
10 -11 -36 9 -56 10 -10 18 -14 18 -9 0 6 -4 13 -10 16 -16 10 -12 24 13 35
20 10 20 10 5 -3 -11 -9 -14 -17 -8 -23 6 -6 13 -32 16 -59 4 -28 14 -61 22
-75 19 -29 24 -53 11 -44 -5 3 -7 9 -4 14 3 5 -2 13 -11 18 -12 7 -24 2 -45
-19 -17 -16 -33 -29 -38 -29 -15 0 -51 -37 -43 -45 4 -5 2 -5 -5 -2 -6 4 -18
0 -26 -8 -9 -8 -20 -15 -25 -15 -13 0 -23 -27 -16 -44 7 -18 45 -12 60 9 6 8
14 12 17 8 4 -3 7 -2 7 4 0 6 11 13 25 15 13 3 22 1 19 -3 -3 -5 -1 -9 4 -9 5
0 17 -18 28 -40 10 -22 25 -40 33 -40 9 0 6 -7 -9 -20 -13 -11 -19 -20 -14
-20 5 0 4 -4 -2 -8 -5 -4 -19 -23 -30 -42 -21 -37 -26 -122 -9 -150 5 -8 11
-23 12 -34 5 -29 51 -158 72 -202 11 -21 17 -41 15 -43 -7 -7 -83 83 -78 91 3
5 1 8 -4 8 -6 0 -25 23 -43 51 -18 28 -37 56 -44 62 -13 14 -29 49 -27 60 1 4
-2 7 -7 7 -5 0 -12 12 -17 28 -9 33 -9 33 -17 52 -14 32 -36 133 -32 141 3 4
1 10 -4 14 -6 3 -10 22 -9 43 0 20 -1 39 -2 42 -6 14 -5 139 1 163 5 16 4 27
-2 27 -5 0 -4 10 3 23 6 12 13 32 13 44 1 12 7 29 14 37 7 8 10 20 6 26 -3 5
-1 10 5 10 6 0 8 5 4 12 -5 7 -2 9 9 5 12 -4 14 -2 10 10 -4 10 -2 14 4 10 6
-4 13 0 17 8 8 21 11 19 13 -12z m182 -290 c5 -10 9 -20 9 -23 1 -12 15 -47
29 -73 15 -28 14 -29 -8 -25 -29 4 -62 36 -78 76 -15 35 -8 54 16 45 11 -4 14
-3 9 5 -4 7 -3 12 3 12 6 0 15 -8 20 -17z m3244 -43 c10 -12 9 -12 -5 -2 -12
10 -17 10 -20 1 -3 -8 -7 -7 -16 3 -9 12 -8 14 8 13 11 -1 26 -8 33 -15z m24
-32 c-3 -8 -6 -5 -6 6 -1 11 2 17 5 13 3 -3 4 -12 1 -19z m28 3 c3 -5 2 -12
-3 -15 -5 -3 -9 1 -9 9 0 17 3 19 12 6z m130 -29 c-3 -3 -11 0 -18 7 -9 10 -8
11 6 5 10 -3 15 -9 12 -12z m-45 -82 c0 -5 -4 -10 -10 -10 -5 0 -10 5 -10 10
0 6 5 10 10 10 6 0 10 -4 10 -10z m120 -40 c0 -5 -2 -10 -4 -10 -3 0 -8 5 -11
10 -3 6 -1 10 4 10 6 0 11 -4 11 -10z m25 -49 c-6 -5 -25 10 -25 20 0 5 6 4
14 -3 8 -7 12 -15 11 -17z m-91 7 c-3 -5 -10 -6 -15 -2 -5 3 -18 0 -27 -8 -15
-12 -16 -11 -4 4 13 16 56 22 46 6z m-11 -31 c7 3 8 2 4 -2 -14 -16 -36 -14
-29 3 4 10 7 12 10 4 2 -7 9 -9 15 -5z m-36 -49 c-3 -8 -6 -5 -6 6 -1 11 2 17
5 13 3 -3 4 -12 1 -19z m-77 -58 c-8 -5 -19 -10 -25 -10 -5 0 -3 5 5 10 8 5
20 10 25 10 6 0 3 -5 -5 -10z m-55 -18 c-3 -3 -11 0 -18 7 -9 10 -8 11 6 5 10
-3 15 -9 12 -12z m99 -63 c-3 -5 -10 -7 -15 -3 -5 3 -7 10 -3 15 3 5 10 7 15
3 5 -3 7 -10 3 -15z m-2034 -20 c0 -11 4 -18 8 -15 5 3 8 -5 7 -17 -2 -24 16
-58 52 -97 21 -23 21 -28 8 -53 -7 -15 -10 -27 -5 -27 30 0 -29 -56 -67 -64
-10 -1 -25 -6 -33 -9 -44 -19 -98 -23 -150 -11 -64 15 -131 46 -150 69 -11 14
-10 17 8 21 28 8 33 26 17 58 -7 14 -11 25 -7 25 4 -1 10 0 15 1 4 1 10 3 15
5 50 13 62 18 62 24 0 4 6 8 13 8 19 0 126 53 134 66 11 18 57 46 66 40 4 -2
7 -13 7 -24z m1000 -2 c0 -7 -4 -6 -10 3 -6 10 -10 11 -10 3 0 -7 -5 -13 -11
-13 -8 0 -8 5 1 15 13 16 30 11 30 -8z m530 -2 c-7 -8 -17 -15 -23 -15 -6 0
-2 7 9 15 25 19 30 19 14 0z m58 7 c15 12 16 11 3 -4 -14 -19 -32 -15 -30 5 0
8 2 8 6 -1 4 -10 8 -10 21 0z m372 -4 c0 -4 -4 -8 -9 -8 -6 0 -12 4 -15 8 -3
5 1 9 9 9 8 0 15 -4 15 -9z m-760 -8 c0 -5 -5 -10 -11 -10 -5 0 -7 5 -4 10 3
6 8 10 11 10 2 0 4 -4 4 -10z m43 -8 c-5 -11 -7 -11 -14 0 -7 11 -9 10 -9 -1
0 -8 -3 -12 -6 -8 -9 9 3 24 20 24 8 0 12 -6 9 -15z m312 -2 c3 -5 1 -10 -4
-10 -6 0 -11 5 -11 10 0 6 2 10 4 10 3 0 8 -4 11 -10z m-240 -20 c3 -6 -1 -7
-9 -4 -18 7 -21 14 -7 14 6 0 13 -4 16 -10z m565 -5 c0 -8 -2 -15 -4 -15 -2 0
-6 7 -10 15 -3 8 -1 15 4 15 6 0 10 -7 10 -15z m-745 -39 c0 -13 -2 -27 -5
-30 -5 -4 -6 43 -1 52 4 8 7 -1 6 -22z m559 9 c-4 -8 -11 -15 -16 -15 -6 0 -5
6 2 15 7 8 14 15 16 15 2 0 1 -7 -2 -15z m121 -3 c-10 -11 -35 -10 -42 0 -3 6
-1 8 5 4 6 -3 13 -2 17 4 4 6 11 8 16 4 6 -3 8 -9 4 -12z m-798 -14 c-3 -8 -6
-5 -6 6 -1 11 2 17 5 13 3 -3 4 -12 1 -19z m558 12 c-3 -5 -1 -10 6 -10 7 0
10 -3 6 -6 -9 -9 -28 6 -22 17 4 5 8 9 11 9 3 0 2 -4 -1 -10z m51 -28 c-11 -9
-16 -12 -12 -5 3 6 3 13 -1 16 -5 2 -2 2 6 0 9 -2 11 2 7 14 -6 15 -5 16 5 5
11 -10 10 -16 -5 -30z m134 28 c0 -5 -2 -10 -4 -10 -3 0 -8 5 -11 10 -3 6 -1
10 4 10 6 0 11 -4 11 -10z m-2292 -453 c9 -8 22 -16 27 -18 6 -2 37 -20 70
-39 33 -19 64 -35 70 -36 28 -5 41 -10 48 -19 4 -6 11 -4 17 5 7 12 10 12 10
1 0 -7 6 -11 15 -7 8 3 15 2 15 -3 0 -5 -26 -11 -57 -15 -31 -4 -62 -11 -69
-17 -8 -7 -14 -7 -18 0 -5 7 -15 7 -31 1 -18 -7 -25 -6 -25 3 0 8 -3 8 -8 1
-4 -6 -49 -9 -117 -8 -147 2 -139 1 -174 30 -17 14 -31 23 -31 19 0 -3 -11 5
-25 19 -29 29 -32 39 -7 32 9 -3 35 -1 57 5 22 6 49 12 60 13 46 7 76 19 85
36 11 21 62 20 88 -3z"/>
<path d="M1270 2560 c-9 -6 -10 -10 -3 -10 6 0 15 5 18 10 8 12 4 12 -15 0z"/>
<path d="M2299 4743 c-12 -16 -12 -17 2 -6 9 7 20 9 24 5 5 -4 5 -1 1 6 -9 16
-11 15 -27 -5z"/>
<path d="M2421 4744 c0 -11 3 -14 6 -6 3 7 2 16 -1 19 -3 4 -6 -2 -5 -13z"/>
<path d="M3510 4717 c0 -5 5 -17 10 -28 8 -14 7 -19 -2 -19 -7 0 -5 -5 5 -12
11 -9 14 -18 8 -27 -6 -9 -11 -10 -15 -2 -11 17 -23 13 -29 -10 -3 -12 -10
-18 -16 -14 -6 3 -11 -1 -11 -9 0 -8 9 -20 19 -26 24 -13 34 -13 26 -1 -3 6 3
14 12 20 24 14 8 14 -20 0 -20 -9 -20 -9 -5 4 10 8 15 17 12 20 -3 3 3 3 15 0
16 -4 21 -1 21 13 0 16 2 17 11 4 8 -11 9 -9 3 10 -6 23 -6 24 12 10 17 -14
18 -13 7 1 -7 9 -10 19 -6 22 3 4 1 7 -5 7 -7 0 -12 -4 -12 -10 0 -5 -5 -10
-11 -10 -5 0 -8 3 -5 8 2 4 -2 18 -10 32 -7 14 -13 21 -14 17z"/>
<path d="M3537 4703 c3 -7 6 -13 8 -13 2 0 5 6 8 13 3 8 -1 14 -8 14 -7 0 -11
-6 -8 -14z"/>
<path d="M3480 4685 c-18 -21 -8 -37 25 -41 24 -2 26 -1 13 7 -9 5 -15 16 -12
23 8 20 -12 28 -26 11z m13 -10 c-3 -9 -8 -14 -10 -11 -3 3 -2 9 2 15 9 16 15
13 8 -4z"/>
<path d="M3446 4655 c6 -14 4 -16 -6 -10 -9 5 -11 4 -6 -4 4 -6 12 -9 17 -6 5
4 9 4 9 1 0 -3 -10 -10 -21 -17 -17 -9 -20 -8 -14 2 5 8 4 10 -4 5 -7 -5 -9
-16 -5 -28 4 -13 2 -18 -4 -14 -6 3 -14 1 -18 -6 -4 -7 -4 -10 1 -6 4 4 18 -3
31 -17 20 -21 23 -22 29 -7 6 15 8 15 15 -3 7 -16 9 -17 9 -3 1 9 -6 21 -15
26 -18 10 -14 48 4 45 19 -5 14 22 -8 42 -20 18 -21 18 -14 0z m-9 -69 c-3 -7
0 -20 6 -27 10 -11 9 -11 -5 0 -15 11 -15 41 -1 41 3 0 3 -6 0 -14z"/>
<path d="M2100 4619 c-21 -16 -21 -18 -5 -13 15 4 11 -3 -13 -26 -19 -17 -31
-34 -27 -38 3 -3 10 0 15 8 9 13 10 13 10 0 0 -13 2 -13 9 0 6 8 7 18 4 24 -4
5 1 7 10 3 18 -7 32 19 15 29 -7 4 -6 9 3 15 7 4 11 10 9 13 -3 2 -16 -4 -30
-15z"/>
<path d="M2876 4591 c-4 -5 -2 -12 3 -15 5 -4 12 -2 15 3 4 5 2 12 -3 15 -5 4
-12 2 -15 -3z"/>
<path d="M3110 4589 c0 -5 5 -7 10 -4 6 3 10 8 10 11 0 2 -4 4 -10 4 -5 0 -10
-5 -10 -11z"/>
<path d="M3617 4453 c-4 -3 -7 -11 -7 -17 0 -6 5 -5 12 2 6 6 9 14 7 17 -3 3
-9 2 -12 -2z"/>
<path d="M3815 4441 c-3 -5 -2 -12 3 -15 5 -3 9 1 9 9 0 17 -3 19 -12 6z"/>
<path d="M3566 4425 c-3 -9 -11 -13 -17 -9 -8 5 -9 3 -4 -5 6 -10 11 -9 23 3
9 8 13 18 10 21 -3 3 -8 -1 -12 -10z"/>
<path d="M3450 4371 c0 -7 -5 -9 -12 -5 -7 5 -8 3 -3 -5 5 -9 10 -10 18 -2 6
6 8 14 4 18 -4 3 -7 1 -7 -6z"/>
<path d="M1996 4362 c-3 -5 1 -9 9 -9 8 0 12 4 9 9 -3 4 -7 8 -9 8 -2 0 -6 -4
-9 -8z"/>
<path d="M2993 4315 c0 -8 4 -12 9 -9 5 3 6 10 3 15 -9 13 -12 11 -12 -6z"/>
<path d="M4050 4315 c6 -8 18 -11 26 -8 18 7 13 12 -16 18 -18 3 -20 2 -10
-10z"/>
<path d="M2983 4266 c1 -11 9 -21 17 -23 10 -3 11 -2 4 4 -6 4 -14 15 -17 23
-5 11 -6 9 -4 -4z"/>
<path d="M526 3467 c3 -10 9 -15 12 -12 3 3 0 11 -7 18 -10 9 -11 8 -5 -6z"/>
<path d="M496 3448 c3 -4 0 -8 -7 -8 -7 0 -4 -6 7 -14 13 -10 22 -11 29 -4 7
7 6 12 -3 15 -6 3 -10 8 -8 12 3 4 -1 8 -9 8 -8 0 -12 -4 -9 -9z"/>
<path d="M552 3441 c-11 -7 -11 -9 0 -14 9 -3 15 1 15 9 0 8 -1 14 -1 14 -1 0
-7 -4 -14 -9z"/>
<path d="M4075 3439 c-4 -6 -5 -12 -2 -15 2 -3 7 2 10 11 7 17 1 20 -8 4z"/>
<path d="M360 3350 c0 -5 5 -10 11 -10 5 0 7 5 4 10 -3 6 -8 10 -11 10 -2 0
-4 -4 -4 -10z"/>
<path d="M349 3313 c-7 -10 -9 -15 -5 -11 5 4 16 2 25 -5 14 -10 14 -10 4 4
-7 9 -10 19 -6 22 3 4 4 7 1 7 -3 0 -12 -8 -19 -17z"/>
<path d="M525 3130 c-3 -6 1 -7 9 -4 18 7 21 14 7 14 -6 0 -13 -4 -16 -10z"/>
<path d="M561 3091 c-8 -5 -9 -11 -3 -15 5 -3 12 1 16 9 6 17 6 18 -13 6z"/>
<path d="M696 2953 c-6 -14 -5 -15 5 -6 7 7 10 15 7 18 -3 3 -9 -2 -12 -12z"/>
<path d="M4063 2789 c-6 -6 -9 -19 -6 -28 4 -14 3 -14 -6 1 -10 15 -14 15 -38
3 -15 -8 -31 -11 -36 -8 -6 3 -7 1 -3 -6 4 -6 12 -9 17 -6 5 3 6 -1 3 -9 -3
-9 -11 -13 -18 -9 -15 10 -36 13 -34 5 4 -16 -14 -52 -24 -46 -6 4 -5 10 3 15
8 5 9 9 3 9 -6 0 -18 -8 -25 -17 -10 -11 -10 -14 -1 -9 16 10 15 0 -4 -29 -9
-14 -14 -31 -11 -39 4 -10 0 -14 -13 -11 -22 4 -47 -20 -30 -30 14 -9 13 -28
-2 -19 -10 6 -10 4 0 -7 16 -18 16 -34 -1 -20 -11 8 -13 6 -12 -9 1 -11 5 -23
10 -27 4 -5 5 -2 1 5 -4 6 -2 12 3 12 6 0 11 -5 11 -11 0 -5 6 -7 13 -3 7 4 9
3 4 -2 -5 -5 -13 -10 -18 -10 -5 -1 -14 -2 -20 -3 -5 0 -7 -6 -4 -11 4 -6 2
-17 -5 -25 -8 -10 -8 -15 1 -20 8 -6 7 -10 -2 -16 -9 -6 -10 -9 -2 -9 24 0 44
-30 33 -50 -7 -13 -7 -21 2 -26 6 -4 8 -3 4 4 -3 6 -1 14 5 18 7 4 9 3 6 -3
-7 -12 16 -36 27 -28 3 3 1 -1 -4 -7 -9 -10 -13 -10 -20 2 -8 12 -10 12 -10 1
0 -11 -3 -11 -15 -1 -9 7 -15 8 -15 2 0 -5 6 -12 14 -15 8 -3 12 -16 11 -31
-2 -14 1 -24 5 -21 5 3 11 1 15 -5 4 -7 13 -7 26 0 10 6 19 7 18 3 -3 -20 2
-27 11 -13 6 9 10 10 10 3 0 -6 -4 -14 -10 -18 -6 -3 -5 -15 2 -30 8 -18 14
-22 24 -14 9 7 14 5 19 -10 3 -12 11 -21 16 -21 6 0 8 4 5 8 -3 5 1 9 8 9 8 0
11 -8 9 -18 -3 -11 -11 -16 -21 -12 -18 7 -17 5 9 -15 13 -10 19 -9 30 5 12
15 12 16 -1 8 -13 -8 -13 -7 0 11 8 10 15 21 17 23 1 2 1 -7 1 -20 -1 -13 -5
-29 -10 -35 -5 -7 0 -10 15 -9 12 1 28 -3 36 -9 11 -8 13 -8 7 2 -4 7 -2 12 5
12 8 0 7 5 -2 18 -13 15 -12 16 3 4 9 -8 23 -11 30 -7 7 4 5 0 -4 -8 -24 -19
-23 -30 1 -17 29 15 39 12 46 -11 5 -16 9 -18 15 -9 4 7 12 10 18 6 6 -3 13
-2 17 3 3 5 14 8 25 6 13 -3 18 0 14 7 -5 7 0 9 14 6 14 -4 20 -2 16 4 -4 6 1
8 14 4 14 -5 26 0 40 18 10 14 22 23 25 19 4 -3 9 2 13 11 3 9 11 13 17 9 6
-4 8 0 4 10 -3 9 -3 16 1 16 18 -3 32 2 32 11 0 5 -7 6 -17 3 -11 -4 -14 -3
-9 5 4 7 14 12 23 12 10 0 13 6 9 16 -3 8 -2 13 3 10 4 -3 17 2 27 10 17 14
17 15 2 10 -10 -3 -18 -1 -18 4 0 6 4 10 10 10 5 0 14 10 21 21 6 12 7 19 2
16 -5 -3 -9 3 -9 13 0 13 4 16 12 10 7 -7 10 -1 9 20 -1 17 2 30 7 30 4 0 8 5
8 11 0 5 -4 8 -9 5 -5 -4 -8 1 -7 10 1 8 9 20 17 25 8 5 9 9 3 9 -7 0 -11 15
-10 36 1 20 -2 38 -7 41 -4 2 -6 -1 -5 -8 2 -6 -4 -14 -12 -16 -13 -4 -13 -3
0 6 8 6 11 11 6 11 -5 0 -2 8 5 17 8 9 10 14 4 11 -5 -3 -17 1 -25 10 -13 14
-12 15 3 9 9 -3 19 -2 22 3 4 6 -3 10 -13 10 -23 0 -35 23 -20 38 12 12 -24
36 -37 24 -5 -4 -4 -1 0 7 6 11 4 13 -8 8 -12 -5 -15 0 -11 29 3 26 1 34 -11
34 -10 0 -13 5 -9 12 4 7 3 8 -4 4 -6 -4 -9 -14 -6 -24 5 -15 5 -15 -6 1 -6 9
-8 22 -5 27 4 6 -1 7 -11 3 -10 -4 -15 -2 -11 4 3 5 0 10 -8 10 -8 0 -11 -5
-8 -10 4 -6 -4 -3 -16 6 -13 8 -30 13 -39 10 -10 -4 -13 -2 -8 5 3 6 2 14 -4
17 -6 4 -10 3 -9 -2 4 -22 -3 -24 -18 -7 -22 23 -63 28 -63 6 0 -11 3 -12 13
-3 10 8 18 7 32 -3 15 -11 16 -13 1 -13 -9 0 -16 5 -16 10 0 5 -7 4 -16 -3
-13 -11 -16 -10 -21 8 -6 23 -14 27 -27 15 -11 -11 -30 -10 -38 2 -5 6 -8 5
-8 -4 0 -10 -3 -11 -13 -2 -10 8 -16 8 -24 0z m20 -14 c4 -8 3 -16 -1 -19 -4
-3 -9 4 -9 15 -2 23 3 25 10 4z m53 -7 c3 -4 -1 -5 -10 -4 -8 1 -18 5 -22 8
-3 4 1 5 10 4 8 -1 18 -5 22 -8z m-99 -11 c0 -8 -6 -14 -14 -14 -9 0 -10 4 -2
14 6 7 12 13 14 13 1 0 2 -6 2 -13z m-172 -167 c3 -5 -1 -10 -10 -10 -9 0 -13
5 -10 10 3 6 8 10 10 10 2 0 7 -4 10 -10z m642 -135 c0 -8 -4 -12 -9 -9 -5 3
-6 10 -3 15 9 13 12 11 12 -6z m-662 -8 c-12 -10 -14 -16 -7 -21 15 -9 16 -26
1 -26 -5 0 -8 4 -4 9 3 5 1 13 -5 16 -13 8 6 35 23 35 6 0 3 -6 -8 -13z m30
-17 c3 -6 -1 -7 -9 -4 -18 7 -21 14 -7 14 6 0 13 -4 16 -10z m20 -167 c-2 -10
-4 -20 -4 -22 -3 -13 -29 24 -28 39 1 14 5 16 18 9 10 -5 16 -17 14 -26z m475
-98 c11 -13 10 -14 -4 -9 -9 3 -16 10 -16 15 0 13 6 11 20 -6z m-27 -29 c7 4
4 -1 -5 -12 -14 -15 -20 -16 -30 -5 -11 10 -10 11 5 5 12 -4 16 -2 14 7 -2 8
-2 11 0 6 3 -4 10 -4 16 -1z m-276 -28 c-3 -8 -6 -5 -6 6 -1 11 2 17 5 13 3
-3 4 -12 1 -19z m161 -10 c-5 -14 -48 -19 -48 -5 0 5 9 7 20 4 11 -3 20 -1 20
4 0 5 3 9 6 9 3 0 4 -5 2 -12z"/>
<path d="M3870 2271 c0 -6 4 -12 8 -15 5 -3 9 1 9 9 0 8 -4 15 -9 15 -4 0 -8
-4 -8 -9z"/>
<path d="M4420 2682 c0 -4 9 -13 20 -19 14 -9 21 -10 26 -1 4 7 3 8 -4 4 -7
-4 -12 -3 -12 2 0 6 -7 12 -15 16 -8 3 -15 2 -15 -2z"/>
<path d="M4477 2599 c7 -7 15 -10 18 -7 3 3 -2 9 -12 12 -14 6 -15 5 -6 -5z"/>
<path d="M3834 2372 c3 -5 0 -13 -6 -15 -9 -4 -10 -6 -1 -6 17 -1 25 16 12 25
-7 4 -9 3 -5 -4z"/>
<path d="M4583 2230 c6 -20 -17 -41 -32 -29 -7 6 -8 5 -2 -2 5 -6 7 -18 4 -25
-3 -8 -1 -14 5 -14 12 0 38 30 26 30 -5 0 2 10 16 21 14 11 19 18 11 14 -7 -4
-18 -1 -23 6 -8 12 -9 11 -5 -1z"/>
<path d="M3891 2221 c-10 -6 -9 -10 4 -15 9 -3 13 -11 9 -17 -4 -7 -3 -9 4 -6
10 7 11 31 1 41 -2 3 -10 1 -18 -3z"/>
<path d="M3956 2145 c-3 -8 -1 -15 4 -15 6 0 10 7 10 15 0 8 -2 15 -4 15 -2 0
-6 -7 -10 -15z"/>
<path d="M4789 2133 c14 -28 17 -28 25 -6 4 10 4 14 0 10 -4 -4 -14 -1 -22 6
-13 10 -14 9 -3 -10z"/>
<path d="M4140 2080 c-9 -6 -10 -10 -3 -10 6 0 15 5 18 10 8 12 4 12 -15 0z"/>
<path d="M4873 1791 c-7 -10 -9 -22 -6 -25 13 -12 21 -5 21 19 0 30 0 30 -15
6z"/>
<path d="M4441 1723 c-1 -17 16 -25 25 -12 4 7 3 9 -4 5 -5 -3 -13 0 -15 6 -4
9 -6 10 -6 1z"/>
<path d="M3742 1695 c4 -4 3 -14 -3 -21 -6 -7 -6 -15 -1 -18 6 -3 12 3 15 14
3 11 0 23 -6 27 -7 3 -9 3 -5 -2z"/>
<path d="M4147 1689 c7 -7 15 -10 18 -7 3 3 -2 9 -12 12 -14 6 -15 5 -6 -5z"/>
<path d="M4077 1675 c3 -8 9 -12 14 -9 12 7 11 11 -5 17 -10 4 -13 1 -9 -8z"/>
<path d="M4181 1674 c0 -11 3 -14 6 -6 3 7 2 16 -1 19 -3 4 -6 -2 -5 -13z"/>
<path d="M4016 1668 c3 -5 10 -6 15 -3 13 9 11 12 -6 12 -8 0 -12 -4 -9 -9z"/>
<path d="M3679 1562 c9 -7 10 -11 2 -15 -7 -4 -8 -5 -1 -3 16 2 14 20 -2 24
-10 3 -10 2 1 -6z"/>
<path d="M4006 1554 c-16 -11 -22 -11 -29 -1 -6 9 -7 8 -4 -3 4 -16 35 -15 51
1 17 15 2 18 -18 3z"/>
<path d="M4410 1566 c0 -2 7 -9 15 -16 13 -11 14 -10 9 4 -5 14 -24 23 -24 12z"/>
<path d="M3879 1543 c-13 -16 -12 -17 4 -4 9 7 17 15 17 17 0 8 -8 3 -21 -13z"/>
<path d="M3920 1550 c-8 -5 -12 -12 -9 -15 4 -3 12 1 19 10 14 17 11 19 -10 5z"/>
</g>
</svg>
